<svg xmlns="http://www.w3.org/2000/svg" xmlns:xlink="http://www.w3.org/1999/xlink" viewBox="0,0,256,256" width="48px" height="48px"><g fill="#fca34d" fill-rule="nonzero" stroke="none" stroke-width="1" stroke-linecap="butt" stroke-linejoin="miter" stroke-miterlimit="10" stroke-dasharray="" stroke-dashoffset="0" style="mix-blend-mode: normal"><g transform="scale(4,4)"><path d="M15,13c-3.314,0 -6,2.686 -6,6v26c0,3.314 2.686,6 6,6h34c3.314,0 6,-2.686 6,-6v-26c0,-3.314 -2.686,-6 -6,-6zM15,17h34c1.105,0 2,0.895 2,2v22.43359l-9.31836,-8.37891c-1.523,-1.37 -3.83742,-1.36814 -5.35742,0.00586l-7.92187,7.1582l-3.79297,-3.24414c-1.501,-1.284 -3.71494,-1.27923 -5.21094,0.00977l-6.39844,5.51172v-23.49609c0,-1.105 0.895,-2 2,-2zM23,23c-2.209,0 -4,1.791 -4,4c0,2.209 1.791,4 4,4c2.209,0 4,-1.791 4,-4c0,-2.209 -1.791,-4 -4,-4z"></path></g></g></svg>