<svg width="24" height="24" viewBox="0 0 24 24" fill="none" xmlns="http://www.w3.org/2000/svg">
<rect x="2.75" y="2.75" width="9.5" height="9.5" rx="2.25" stroke="#FF9228" stroke-width="1.5"/>
<path d="M4 15V15C4 17.7614 6.23858 20 9 20V20" stroke="#FF9228" stroke-width="1.5" stroke-linecap="round"/>
<path d="M15 4V4C17.7614 4 20 6.23858 20 9V9" stroke="#FF9228" stroke-width="1.5" stroke-linecap="round"/>
<rect x="11.75" y="11.75" width="9.5" height="9.5" rx="2.25" stroke="#FF9228" stroke-width="1.5"/>
<path d="M15.2997 18.0932C15.406 18.2858 15.523 18.4705 15.65 18.6464C15.2473 18.8915 14.7898 19.0142 14.2778 19.0146V20.2683C15.116 20.2683 15.8649 20.0173 16.5 19.5308C17.1351 20.0173 17.884 20.2683 18.7222 20.2683V19.0146C18.2112 19.0146 17.7538 18.8918 17.35 18.6461C17.477 18.4704 17.594 18.2857 17.7003 18.0932C18.0205 17.5058 18.256 16.8647 18.398 16.1939H19V14.9402H17.0556V14H15.9444V14.9402H14V16.1939H14.602C14.744 16.8647 14.9795 17.5058 15.2997 18.0932ZM17.2476 16.1939C17.1326 16.6278 16.968 17.0429 16.758 17.4288C16.6795 17.571 16.5933 17.7077 16.5 17.8381C16.4134 17.7174 16.3331 17.5911 16.2594 17.46C16.0408 17.0655 15.8702 16.6397 15.7523 16.1939H17.2476Z" fill="#FF9228"/>
<path d="M8.96582 10.377L8.55176 9.01758H6.46973L6.05566 10.377H4.75098L6.7666 4.64258H8.24707L10.2705 10.377H8.96582ZM8.2627 8.00195L7.84863 6.67383C7.82259 6.58529 7.78743 6.47201 7.74316 6.33398C7.7015 6.19336 7.65853 6.05143 7.61426 5.9082C7.57259 5.76237 7.53874 5.63607 7.5127 5.5293C7.48665 5.63607 7.4502 5.76888 7.40332 5.92773C7.35905 6.08398 7.31608 6.23242 7.27441 6.37305C7.23275 6.51367 7.2028 6.61393 7.18457 6.67383L6.77441 8.00195H8.2627Z" fill="#FF9228"/>
</svg>
