<svg width="272" height="273" viewBox="0 0 272 273" fill="none" xmlns="http://www.w3.org/2000/svg">
<g opacity="0.1" filter="url(#filter0_f_400_3)">
<rect x="70.7381" y="71.3676" width="129.951" height="129.951" rx="42.4206" fill="#120161"/>
</g>
<rect x="64" y="61.7415" width="129.951" height="129.951" rx="42.4206" fill="white"/>
<path d="M85 127C85 106.258 85 95.8873 91.4436 89.4436C97.8873 83 108.258 83 129 83C149.742 83 160.113 83 166.556 89.4436C173 95.8873 173 106.258 173 127C173 147.742 173 158.113 166.556 164.556C160.113 171 149.742 171 129 171C108.258 171 97.8873 171 91.4436 164.556C85 158.113 85 147.742 85 127Z" fill="#120161"/>
<path d="M136.166 134.833C137.179 134.833 138.018 135.662 137.817 136.654C137.462 138.407 136.598 140.032 135.315 141.315C133.596 143.034 131.264 144 128.833 144C126.402 144 124.07 143.034 122.351 141.315C121.068 140.032 120.204 138.407 119.849 136.654C119.648 135.662 120.487 134.833 121.5 134.833H136.166Z" fill="white"/>
<path d="M140.021 119.757C139.043 120.019 138.444 121.042 138.94 121.925C139.461 122.854 140.183 123.665 141.062 124.294C142.441 125.282 144.12 125.762 145.813 125.651C147.506 125.54 149.108 124.846 150.346 123.686C151.585 122.526 152.382 120.973 152.604 119.291C152.825 117.608 152.457 115.902 151.561 114.461C150.665 113.02 149.297 111.935 147.69 111.389C146.084 110.844 144.338 110.872 142.75 111.47C141.739 111.851 140.832 112.447 140.087 113.209C139.38 113.934 139.693 115.077 140.57 115.583L141.5 116.12C142.915 116.937 142.636 119.056 141.058 119.479L140.021 119.757Z" fill="white"/>
<path d="M117.646 119.757C118.624 120.019 119.223 121.042 118.727 121.925C118.205 122.854 117.483 123.665 116.605 124.294C115.226 125.282 113.547 125.762 111.854 125.651C110.161 125.54 108.559 124.846 107.32 123.686C106.082 122.526 105.284 120.973 105.063 119.291C104.841 117.608 105.21 115.902 106.106 114.461C107.002 113.02 108.37 111.935 109.976 111.389C111.583 110.844 113.329 110.872 114.917 111.47C115.928 111.851 116.835 112.447 117.58 113.209C118.287 113.934 117.973 115.077 117.096 115.583L116.166 116.12C114.752 116.937 115.031 119.056 116.609 119.479L117.646 119.757Z" fill="white"/>
<defs>
<filter id="filter0_f_400_3" x="0.0370331" y="0.666489" width="271.353" height="271.353" filterUnits="userSpaceOnUse" color-interpolation-filters="sRGB">
<feFlood flood-opacity="0" result="BackgroundImageFix"/>
<feBlend mode="normal" in="SourceGraphic" in2="BackgroundImageFix" result="shape"/>
<feGaussianBlur stdDeviation="35.3505" result="effect1_foregroundBlur_400_3"/>
</filter>
</defs>
</svg>
