<svg xmlns="http://www.w3.org/2000/svg" width="48" height="48" viewBox="0 0 256 256"><g fill="none" stroke-miterlimit="10" text-anchor="none" style="mix-blend-mode:normal"><path d="m128 10.667 24 26.666 34.667-10.666 8 34.666 34.666 8L218.667 104l26.666 24-26.666 24 10.666 34.667-34.666 8-8 34.666L152 218.667l-24 26.666-24-26.666-34.667 10.666-8-34.666-34.666-8L37.333 152l-26.666-24 26.666-24-10.666-34.667 34.666-8 8-34.666L104 37.333z" fill="#42a5f6"/><path d="M184.533 77.867 112 150.4l-29.867-29.867L67.2 135.467l44.8 44.8L199.467 92.8z" fill="#e3f2fd"/></g></svg>