<svg width="130" height="131" viewBox="0 0 130 131" fill="none" xmlns="http://www.w3.org/2000/svg">
<rect y="0.741455" width="129.951" height="129.951" rx="42.4206" fill="white"/>
<path d="M21 66C21 45.2582 21 34.8873 27.4436 28.4436C33.8873 22 44.2582 22 65 22C85.7418 22 96.1126 22 102.556 28.4436C109 34.8873 109 45.2582 109 66C109 86.7418 109 97.1126 102.556 103.556C96.1126 110 85.7418 110 65 110C44.2582 110 33.8873 110 27.4436 103.556C21 97.1126 21 86.7418 21 66Z" fill="#120161"/>
<path d="M72.1663 73.8333C73.1788 73.8333 74.0181 74.6621 73.817 75.6545C73.4615 77.4072 72.598 79.0317 71.3147 80.315C69.5958 82.0341 67.2641 82.9999 64.833 82.9999C62.4018 82.9999 60.0703 82.0341 58.3512 80.315C57.0679 79.0317 56.2044 77.4072 55.8491 75.6545C55.6478 74.6621 56.4871 73.8333 57.4996 73.8333H72.1663Z" fill="white"/>
<path d="M76.0206 58.7569C75.0426 59.0189 74.4436 60.0421 74.9395 60.9248C75.4615 61.854 76.1834 62.6648 77.0618 63.2942C78.4408 64.2824 80.1198 64.762 81.8129 64.6509C83.5058 64.54 85.1079 63.8455 86.3462 62.6857C87.5846 61.526 88.3823 59.9726 88.6037 58.2905C88.8252 56.6084 88.4567 54.9016 87.5607 53.4608C86.6648 52.0201 85.2969 50.9346 83.6904 50.3892C82.0838 49.8438 80.338 49.8724 78.7501 50.4701C77.7388 50.8507 76.8317 51.447 76.087 52.2093C75.3795 52.9337 75.6932 54.0771 76.5701 54.5833L77.5001 55.1203C78.9146 55.9371 78.6357 58.0562 77.0579 58.479L76.0206 58.7569Z" fill="white"/>
<path d="M53.6459 58.7569C54.6239 59.0189 55.2229 60.0421 54.727 60.9248C54.205 61.854 53.4831 62.6648 52.6049 63.2942C51.2259 64.2824 49.5467 64.762 47.8538 64.6509C46.1608 64.54 44.5586 63.8455 43.3203 62.6857C42.082 61.526 41.2842 59.9726 41.0628 58.2905C40.8413 56.6084 41.2099 54.9016 42.1059 53.4608C43.0018 52.0201 44.3696 50.9346 45.9761 50.3892C47.5827 49.8438 49.3287 49.8724 50.9166 50.4701C51.9277 50.8507 52.835 51.447 53.5797 52.2093C54.2872 52.9337 53.9733 54.0771 53.0964 54.5833L52.1664 55.1203C50.7519 55.9371 51.031 58.0562 52.6086 58.479L53.6459 58.7569Z" fill="white"/>
</svg>
